<svg id="visual" viewBox="0 0 960 540" width="960" height="540" xmlns="http://www.w3.org/2000/svg" xmlns:xlink="http://www.w3.org/1999/xlink" version="1.1"><rect x="0" y="0" width="960" height="540" fill="#cb56e8"></rect><path d="M0 402L22.8 389.8C45.7 377.7 91.3 353.3 137 351C182.7 348.7 228.3 368.3 274 365.8C319.7 363.3 365.3 338.7 411.2 336.3C457 334 503 354 548.8 360.7C594.7 367.3 640.3 360.7 686 363C731.7 365.3 777.3 376.7 823 384.8C868.7 393 914.3 398 937.2 400.5L960 403L960 541L937.2 541C914.3 541 868.7 541 823 541C777.3 541 731.7 541 686 541C640.3 541 594.7 541 548.8 541C503 541 457 541 411.2 541C365.3 541 319.7 541 274 541C228.3 541 182.7 541 137 541C91.3 541 45.7 541 22.8 541L0 541Z" fill="#475ed3"></path><path d="M0 391L22.8 387.3C45.7 383.7 91.3 376.3 137 372C182.7 367.7 228.3 366.3 274 368.3C319.7 370.3 365.3 375.7 411.2 385.7C457 395.7 503 410.3 548.8 414.5C594.7 418.7 640.3 412.3 686 406.3C731.7 400.3 777.3 394.7 823 390.3C868.7 386 914.3 383 937.2 381.5L960 380L960 541L937.2 541C914.3 541 868.7 541 823 541C777.3 541 731.7 541 686 541C640.3 541 594.7 541 548.8 541C503 541 457 541 411.2 541C365.3 541 319.7 541 274 541C228.3 541 182.7 541 137 541C91.3 541 45.7 541 22.8 541L0 541Z" fill="#7859d1"></path><path d="M0 436L22.8 429.8C45.7 423.7 91.3 411.3 137 412.3C182.7 413.3 228.3 427.7 274 430.3C319.7 433 365.3 424 411.2 426.7C457 429.3 503 443.7 548.8 443.8C594.7 444 640.3 430 686 423.8C731.7 417.7 777.3 419.3 823 425.3C868.7 431.3 914.3 441.7 937.2 446.8L960 452L960 541L937.2 541C914.3 541 868.7 541 823 541C777.3 541 731.7 541 686 541C640.3 541 594.7 541 548.8 541C503 541 457 541 411.2 541C365.3 541 319.7 541 274 541C228.3 541 182.7 541 137 541C91.3 541 45.7 541 22.8 541L0 541Z" fill="#9d53cb"></path><path d="M0 471L22.8 470.5C45.7 470 91.3 469 137 471.3C182.7 473.7 228.3 479.3 274 478.3C319.7 477.3 365.3 469.7 411.2 470C457 470.3 503 478.7 548.8 480.2C594.7 481.7 640.3 476.3 686 475.8C731.7 475.3 777.3 479.7 823 480.2C868.7 480.7 914.3 477.3 937.2 475.7L960 474L960 541L937.2 541C914.3 541 868.7 541 823 541C777.3 541 731.7 541 686 541C640.3 541 594.7 541 548.8 541C503 541 457 541 411.2 541C365.3 541 319.7 541 274 541C228.3 541 182.7 541 137 541C91.3 541 45.7 541 22.8 541L0 541Z" fill="#bc4cc1"></path><path d="M0 515L22.8 514C45.7 513 91.3 511 137 507.5C182.7 504 228.3 499 274 494.3C319.7 489.7 365.3 485.3 411.2 484.8C457 484.3 503 487.7 548.8 491.3C594.7 495 640.3 499 686 502.8C731.7 506.7 777.3 510.3 823 508.7C868.7 507 914.3 500 937.2 496.5L960 493L960 541L937.2 541C914.3 541 868.7 541 823 541C777.3 541 731.7 541 686 541C640.3 541 594.7 541 548.8 541C503 541 457 541 411.2 541C365.3 541 319.7 541 274 541C228.3 541 182.7 541 137 541C91.3 541 45.7 541 22.8 541L0 541Z" fill="#d646b5"></path></svg>