<svg id="visual" viewBox="0 0 960 540" width="960" height="540" xmlns="http://www.w3.org/2000/svg" xmlns:xlink="http://www.w3.org/1999/xlink" version="1.1"><rect x="0" y="0" width="960" height="540" fill="#002233"></rect><path d="M0 414L22.8 406.5C45.7 399 91.3 384 137 376.7C182.7 369.3 228.3 369.7 274 381.3C319.7 393 365.3 416 411.2 432.2C457 448.3 503 457.7 548.8 452.2C594.7 446.7 640.3 426.3 686 415C731.7 403.7 777.3 401.3 823 394.5C868.7 387.7 914.3 376.3 937.2 370.7L960 365L960 541L937.2 541C914.3 541 868.7 541 823 541C777.3 541 731.7 541 686 541C640.3 541 594.7 541 548.8 541C503 541 457 541 411.2 541C365.3 541 319.7 541 274 541C228.3 541 182.7 541 137 541C91.3 541 45.7 541 22.8 541L0 541Z" fill="#aa0884" stroke-linecap="round" stroke-linejoin="miter"></path></svg>